<svg xmlns="http://www.w3.org/2000/svg" viewBox="0 0 120 120" role="img" aria-label="Mari, il pulcino"><g class="bob">
    <g fill="#ff9a2e" stroke="#5a3a10" stroke-width="2.2" stroke-linejoin="round">
      <path d="M44 104 L40 115 L45 112 L47 116 L50 112 L54 115 L50 104 Z"/>
      <path d="M70 104 L66 115 L70 112 L73 116 L76 112 L80 115 L76 104 Z"/>
    </g>
    <g class="wing-l"><ellipse cx="20" cy="70" rx="11" ry="17" transform="rotate(28 20 70)" fill="#ffc21f" stroke="#5a3a10" stroke-width="2.5"/></g>
    <g class="wing-r"><ellipse cx="100" cy="70" rx="11" ry="17" transform="rotate(-28 100 70)" fill="#ffc21f" stroke="#5a3a10" stroke-width="2.5"/></g>
    <path d="M52 22 C44 8 55 3 59 16 C59 0 73 3 65 18 C72 10 80 15 71 23" fill="#ffc21f" stroke="#5a3a10" stroke-width="2.5" stroke-linejoin="round"/>
    <ellipse cx="60" cy="62" rx="41" ry="44" fill="#ffd84a" stroke="#5a3a10" stroke-width="2.5"/>
    <ellipse cx="60" cy="82" rx="25" ry="19" fill="#ffe993"/>
    <ellipse cx="44" cy="34" rx="10" ry="6" fill="#fff6c4" opacity=".7" transform="rotate(-25 44 34)"/>
    
    <g class="eyes">
      <ellipse cx="44" cy="50" rx="7.5" ry="9" fill="#2b1a12"/><ellipse cx="76" cy="50" rx="7.5" ry="9" fill="#2b1a12"/>
      <circle cx="46.5" cy="46.5" r="3.2" fill="#fff"/><circle cx="78.5" cy="46.5" r="3.2" fill="#fff"/>
      <circle cx="41.5" cy="54" r="1.5" fill="#fff"/><circle cx="73.5" cy="54" r="1.5" fill="#fff"/>
    </g>
    <ellipse cx="32" cy="64" rx="7" ry="4.2" fill="#ff8d8d" opacity=".65"/><ellipse cx="88" cy="64" rx="7" ry="4.2" fill="#ff8d8d" opacity=".65"/>
    <path d="M50 63 Q60 55 70 63 Q60 67 50 63 Z" fill="#ffa23d" stroke="#5a3a10" stroke-width="2.2" stroke-linejoin="round"/><path d="M52 66 Q60 82 68 66 Z" fill="#e8642a" stroke="#5a3a10" stroke-width="2.2" stroke-linejoin="round"/><path d="M56 70 Q60 75 64 70Z" fill="#ff7b8f"/>
  </g></svg>